<svg xmlns="http://www.w3.org/2000/svg" width="20" height="14" viewBox="0 0 20 14">
    <g fill="none" fill-rule="evenodd">
        <g fill="#FFF">
            <g>
                <path fill-rule="nonzero" d="M3.644 6.041l4.64-4.472c.359-.345.37-.916.024-1.274L8.285.272c-.376-.363-.97-.363-1.347 0L0 6.958l6.938 6.686c.376.362.97.362 1.347 0 .358-.345.368-.915.023-1.274l-.023-.023-4.641-4.472-.922-.917.922-.917z" transform="translate(-16 -56) translate(16 56)"/>
                <path d="M3.478 5.798h15.363c.64 0 1.159.52 1.159 1.16 0 .64-.52 1.16-1.16 1.16H3.479c-.64 0-1.16-.52-1.16-1.16 0-.64.52-1.16 1.16-1.16z" transform="translate(-16 -56) translate(16 56)"/>
            </g>
        </g>
    </g>
</svg>
